# Blender 4.4.3
# www.blender.org
mtllib outer_ring.mtl
o Cercle
v 0.000000 0.000000 -1.000000
v -0.000000 0.160411 -0.987050
v -0.000000 0.316668 -0.948536
v -0.000000 0.464723 -0.885456
v -0.000000 0.600742 -0.799443
v -0.000000 0.721202 -0.692724
v -0.000000 0.822984 -0.568065
v -0.000000 0.903450 -0.428693
v -0.000000 0.960518 -0.278217
v -0.000000 0.992709 -0.120537
v -0.000000 0.999189 0.040266
v -0.000000 0.979791 0.200026
v -0.000000 0.935016 0.354605
v -0.000000 0.866025 0.500000
v -0.000000 0.774605 0.632445
v -0.000000 0.663123 0.748511
v -0.000000 0.534466 0.845190
v -0.000000 0.391967 0.919979
v -0.000000 0.239316 0.970942
v -0.000000 0.080467 0.996757
v 0.000000 -0.080467 0.996757
v 0.000000 -0.239316 0.970942
v 0.000000 -0.391967 0.919979
v 0.000000 -0.534466 0.845190
v 0.000000 -0.663123 0.748511
v 0.000000 -0.774605 0.632445
v 0.000000 -0.866025 0.500000
v 0.000000 -0.935016 0.354605
v 0.000000 -0.979791 0.200026
v 0.000000 -0.999189 0.040266
v 0.000000 -0.992709 -0.120537
v 0.000000 -0.960518 -0.278217
v 0.000000 -0.903450 -0.428693
v 0.000000 -0.822984 -0.568065
v 0.000000 -0.721202 -0.692724
v 0.000000 -0.600742 -0.799443
v 0.000000 -0.464723 -0.885456
v 0.000000 -0.316668 -0.948536
v 0.000000 -0.160411 -0.987050
v -0.000000 0.000000 -0.900000
v -0.000000 0.144370 -0.888345
v -0.000000 0.285001 -0.853683
v -0.000000 0.418251 -0.796910
v -0.000000 0.540668 -0.719498
v -0.000000 0.649082 -0.623452
v -0.000000 0.740685 -0.511258
v -0.000000 0.813105 -0.385823
v -0.000000 0.864466 -0.250396
v -0.000000 0.893438 -0.108483
v -0.000000 0.899270 0.036239
v -0.000000 0.881812 0.180023
v -0.000000 0.841515 0.319144
v -0.000000 0.779423 0.450000
v -0.000000 0.697144 0.569201
v -0.000000 0.596810 0.673660
v -0.000000 0.481019 0.760671
v -0.000000 0.352770 0.827981
v -0.000000 0.215384 0.873848
v -0.000000 0.072420 0.897082
v 0.000000 -0.072420 0.897082
v 0.000000 -0.215384 0.873848
v 0.000000 -0.352770 0.827981
v 0.000000 -0.481019 0.760671
v 0.000000 -0.596810 0.673660
v 0.000000 -0.697144 0.569201
v 0.000000 -0.779423 0.450000
v 0.000000 -0.841515 0.319144
v 0.000000 -0.881812 0.180023
v 0.000000 -0.899270 0.036239
v 0.000000 -0.893438 -0.108483
v 0.000000 -0.864466 -0.250396
v 0.000000 -0.813105 -0.385823
v 0.000000 -0.740685 -0.511258
v 0.000000 -0.649082 -0.623452
v 0.000000 -0.540668 -0.719498
v 0.000000 -0.418251 -0.796910
v 0.000000 -0.285001 -0.853683
v 0.000000 -0.144370 -0.888345
v 0.100000 0.000000 -1.000000
v 0.100000 0.160411 -0.987050
v 0.100000 0.316668 -0.948536
v 0.100000 0.464723 -0.885456
v 0.100000 0.600742 -0.799443
v 0.100000 0.721202 -0.692724
v 0.100000 0.822984 -0.568065
v 0.100000 0.903450 -0.428693
v 0.100000 0.960518 -0.278217
v 0.100000 0.992709 -0.120537
v 0.100000 0.999189 0.040266
v 0.100000 0.979791 0.200026
v 0.100000 0.935016 0.354605
v 0.100000 0.866025 0.500000
v 0.100000 0.774605 0.632445
v 0.100000 0.663123 0.748511
v 0.100000 0.534466 0.845190
v 0.100000 0.391967 0.919979
v 0.100000 0.239316 0.970942
v 0.100000 0.080467 0.996757
v 0.100000 -0.080467 0.996757
v 0.100000 -0.239316 0.970942
v 0.100000 -0.391967 0.919979
v 0.100000 -0.534466 0.845190
v 0.100000 -0.663123 0.748511
v 0.100000 -0.774605 0.632445
v 0.100000 -0.866025 0.500000
v 0.100000 -0.935016 0.354605
v 0.100000 -0.979791 0.200026
v 0.100000 -0.999189 0.040266
v 0.100000 -0.992709 -0.120537
v 0.100000 -0.960518 -0.278217
v 0.100000 -0.903450 -0.428693
v 0.100000 -0.822984 -0.568065
v 0.100000 -0.721202 -0.692724
v 0.100000 -0.600742 -0.799443
v 0.100000 -0.464723 -0.885456
v 0.100000 -0.316668 -0.948536
v 0.100000 -0.160411 -0.987050
v 0.100000 0.000000 -0.900000
v 0.100000 0.144370 -0.888345
v 0.100000 0.285001 -0.853683
v 0.100000 0.418251 -0.796910
v 0.100000 0.540668 -0.719498
v 0.100000 0.649082 -0.623452
v 0.100000 0.740685 -0.511258
v 0.100000 0.813105 -0.385823
v 0.100000 0.864466 -0.250396
v 0.100000 0.893438 -0.108483
v 0.100000 0.899270 0.036239
v 0.100000 0.881812 0.180023
v 0.100000 0.841515 0.319144
v 0.100000 0.779423 0.450000
v 0.100000 0.697144 0.569201
v 0.100000 0.596810 0.673660
v 0.100000 0.481019 0.760671
v 0.100000 0.352770 0.827981
v 0.100000 0.215384 0.873848
v 0.100000 0.072420 0.897082
v 0.100000 -0.072420 0.897082
v 0.100000 -0.215384 0.873848
v 0.100000 -0.352770 0.827981
v 0.100000 -0.481019 0.760671
v 0.100000 -0.596810 0.673660
v 0.100000 -0.697144 0.569201
v 0.100000 -0.779423 0.450000
v 0.100000 -0.841515 0.319144
v 0.100000 -0.881812 0.180023
v 0.100000 -0.899270 0.036239
v 0.100000 -0.893438 -0.108483
v 0.100000 -0.864466 -0.250396
v 0.100000 -0.813105 -0.385823
v 0.100000 -0.740685 -0.511258
v 0.100000 -0.649082 -0.623452
v 0.100000 -0.540668 -0.719498
v 0.100000 -0.418251 -0.796910
v 0.100000 -0.285001 -0.853683
v 0.100000 -0.144370 -0.888345
vn 1.0000 -0.0000 -0.0000
vn -1.0000 -0.0000 -0.0000
vn -0.0000 0.7212 0.6927
vn -0.0000 0.9605 -0.2782
vn -0.0000 -0.2393 0.9709
vn -0.0000 0.6007 0.7994
vn -0.0000 0.9927 -0.1205
vn -0.0000 -0.3920 0.9200
vn -0.0000 0.4647 0.8855
vn -0.0000 0.9992 0.0403
vn -0.0000 -0.5345 0.8452
vn -0.0000 0.3167 0.9485
vn -0.0000 0.9798 0.2000
vn -0.0000 -0.6631 0.7485
vn -0.0000 0.1604 0.9871
vn -0.0000 0.9350 0.3546
vn -0.0000 -0.7746 0.6324
vn -0.0000 -0.0000 1.0000
vn -0.0000 0.8660 0.5000
vn -0.0000 -0.8660 0.5000
vn -0.0000 -0.1604 0.9871
vn -0.0000 0.7746 0.6324
vn -0.0000 -0.9350 0.3546
vn -0.0000 -0.3167 0.9485
vn -0.0000 0.6631 0.7485
vn -0.0000 -0.9798 0.2000
vn -0.0000 -0.4647 0.8855
vn -0.0000 0.5345 0.8452
vn -0.0000 -0.9992 0.0403
vn -0.0000 -0.6007 0.7994
vn -0.0000 0.3920 0.9200
vn -0.0000 -0.9927 -0.1205
vn -0.0000 -0.7212 0.6927
vn -0.0000 0.2393 0.9709
vn -0.0000 -0.9605 -0.2782
vn -0.0000 -0.8230 0.5681
vn -0.0000 0.0805 0.9968
vn -0.0000 -0.9035 -0.4287
vn -0.0000 -0.9035 0.4287
vn -0.0000 0.0805 -0.9968
vn -0.0000 -0.8230 -0.5681
vn -0.0000 -0.9605 0.2782
vn -0.0000 0.2393 -0.9709
vn -0.0000 -0.7212 -0.6927
vn -0.0000 -0.9927 0.1205
vn -0.0000 0.3920 -0.9200
vn -0.0000 -0.6007 -0.7994
vn -0.0000 -0.9992 -0.0403
vn -0.0000 0.5345 -0.8452
vn -0.0000 -0.4647 -0.8855
vn -0.0000 -0.9798 -0.2000
vn -0.0000 0.6631 -0.7485
vn -0.0000 -0.3167 -0.9485
vn -0.0000 -0.9350 -0.3546
vn -0.0000 0.7746 -0.6324
vn -0.0000 -0.1604 -0.9871
vn -0.0000 -0.8660 -0.5000
vn -0.0000 0.8660 -0.5000
vn -0.0000 -0.0000 -1.0000
vn -0.0000 -0.7746 -0.6324
vn -0.0000 0.9350 -0.3546
vn -0.0000 0.1604 -0.9871
vn -0.0000 -0.6631 -0.7485
vn -0.0000 0.9798 -0.2000
vn -0.0000 0.3167 -0.9485
vn -0.0000 -0.5345 -0.8452
vn -0.0000 0.9992 -0.0403
vn -0.0000 0.4647 -0.8855
vn -0.0000 -0.3920 -0.9200
vn -0.0000 0.9927 0.1205
vn -0.0000 0.6007 -0.7994
vn -0.0000 -0.2393 -0.9709
vn -0.0000 0.9605 0.2782
vn -0.0000 0.7212 -0.6927
vn -0.0000 -0.0805 -0.9968
vn -0.0000 0.9035 0.4287
vn -0.0000 0.8230 -0.5681
vn -0.0000 0.8230 0.5681
vn -0.0000 0.9035 -0.4287
vn -0.0000 -0.0805 0.9968
vt 0.000000 1.000000
vt 0.000000 0.000000
vt 1.000000 0.000070
vt 1.000000 0.999799
vt 0.000000 1.000000
vt 1.000000 1.000000
vt 1.000000 0.000000
vt 0.000000 0.000000
vt 0.999933 0.999933
vt 1.000000 0.000000
s 0
usemtl OuterRingFace
f 15/1/1 54/2/1 53/3/1 14/4/1
f 2/1/1 41/2/1 40/3/1 1/4/1
f 29/1/1 68/2/1 67/3/1 28/4/1
f 16/1/1 55/2/1 54/3/1 15/4/1
f 3/1/1 42/2/1 41/3/1 2/4/1
f 30/1/1 69/2/1 68/3/1 29/4/1
f 17/1/1 56/2/1 55/3/1 16/4/1
f 4/1/1 43/2/1 42/3/1 3/4/1
f 31/1/1 70/2/1 69/3/1 30/4/1
f 18/1/1 57/2/1 56/3/1 17/4/1
f 5/1/1 44/2/1 43/3/1 4/4/1
f 32/1/1 71/2/1 70/3/1 31/4/1
f 19/1/1 58/2/1 57/3/1 18/4/1
f 6/1/1 45/2/1 44/3/1 5/4/1
f 33/1/1 72/2/1 71/3/1 32/4/1
f 20/1/1 59/2/1 58/3/1 19/4/1
f 7/1/1 46/2/1 45/3/1 6/4/1
f 34/1/1 73/2/1 72/3/1 33/4/1
f 21/1/1 60/2/1 59/3/1 20/4/1
f 8/1/1 47/2/1 46/3/1 7/4/1
f 35/1/1 74/2/1 73/3/1 34/4/1
f 22/1/1 61/2/1 60/3/1 21/4/1
f 9/1/1 48/2/1 47/3/1 8/4/1
f 36/1/1 75/2/1 74/3/1 35/4/1
f 23/1/1 62/2/1 61/3/1 22/4/1
f 10/1/1 49/2/1 48/3/1 9/4/1
f 37/1/1 76/2/1 75/3/1 36/4/1
f 24/1/1 63/2/1 62/3/1 23/4/1
f 11/1/1 50/2/1 49/3/1 10/4/1
f 38/1/1 77/2/1 76/3/1 37/4/1
f 25/1/1 64/2/1 63/3/1 24/4/1
f 12/1/1 51/2/1 50/3/1 11/4/1
f 39/1/1 78/2/1 77/3/1 38/4/1
f 26/1/1 65/2/1 64/3/1 25/4/1
f 13/1/1 52/2/1 51/3/1 12/4/1
f 1/1/1 40/2/1 78/3/1 39/4/1
f 27/1/1 66/2/1 65/3/1 26/4/1
f 14/1/1 53/2/1 52/3/1 13/4/1
f 28/1/1 67/2/1 66/3/1 27/4/1
f 93/5/2 92/6/2 131/7/2 132/8/2
f 80/5/2 79/6/2 118/7/2 119/8/2
f 107/5/2 106/6/2 145/7/2 146/8/2
f 94/5/2 93/6/2 132/7/2 133/8/2
f 81/5/2 80/6/2 119/7/2 120/8/2
f 108/5/2 107/6/2 146/7/2 147/8/2
f 95/5/2 94/6/2 133/7/2 134/8/2
f 82/5/2 81/6/2 120/7/2 121/8/2
f 109/5/2 108/6/2 147/7/2 148/8/2
f 96/5/2 95/6/2 134/7/2 135/8/2
f 83/5/2 82/6/2 121/7/2 122/8/2
f 110/5/2 109/6/2 148/7/2 149/8/2
f 97/5/2 96/6/2 135/7/2 136/8/2
f 84/5/2 83/6/2 122/7/2 123/8/2
f 111/5/2 110/6/2 149/7/2 150/8/2
f 98/5/2 97/6/2 136/7/2 137/8/2
f 85/5/2 84/6/2 123/7/2 124/8/2
f 112/5/2 111/6/2 150/7/2 151/8/2
f 99/5/2 98/6/2 137/7/2 138/8/2
f 86/5/2 85/6/2 124/7/2 125/8/2
f 113/5/2 112/6/2 151/7/2 152/8/2
f 100/5/2 99/6/2 138/7/2 139/8/2
f 87/5/2 86/6/2 125/7/2 126/8/2
f 114/5/2 113/6/2 152/7/2 153/8/2
f 101/5/2 100/6/2 139/7/2 140/8/2
f 88/5/2 87/6/2 126/7/2 127/8/2
f 115/5/2 114/6/2 153/7/2 154/8/2
f 102/5/2 101/6/2 140/7/2 141/8/2
f 89/5/2 88/6/2 127/7/2 128/8/2
f 116/5/2 115/6/2 154/7/2 155/8/2
f 103/5/2 102/6/2 141/7/2 142/8/2
f 90/5/2 89/6/2 128/7/2 129/8/2
f 117/5/2 116/6/2 155/7/2 156/8/2
f 104/5/2 103/6/2 142/7/2 143/8/2
f 91/5/2 90/6/2 129/7/2 130/8/2
f 79/5/2 117/6/2 156/7/2 118/8/2
f 105/5/2 104/6/2 143/7/2 144/8/2
f 92/5/2 91/6/2 130/7/2 131/8/2
f 106/5/2 105/6/2 144/7/2 145/8/2
usemtl OuterRingBorder
f 54/9/3 55/1/3 133/2/3 132/10/3
f 29/9/4 28/1/4 106/2/4 107/10/4
f 3/9/5 2/1/5 80/2/5 81/10/5
f 55/9/6 56/1/6 134/2/6 133/10/6
f 30/9/7 29/1/7 107/2/7 108/10/7
f 4/9/8 3/1/8 81/2/8 82/10/8
f 56/9/9 57/1/9 135/2/9 134/10/9
f 31/9/10 30/1/10 108/2/10 109/10/10
f 5/9/11 4/1/11 82/2/11 83/10/11
f 57/9/12 58/1/12 136/2/12 135/10/12
f 32/9/13 31/1/13 109/2/13 110/10/13
f 6/9/14 5/1/14 83/2/14 84/10/14
f 58/9/15 59/1/15 137/2/15 136/10/15
f 33/9/16 32/1/16 110/2/16 111/10/16
f 7/9/17 6/1/17 84/2/17 85/10/17
f 59/9/18 60/1/18 138/2/18 137/10/18
f 34/9/19 33/1/19 111/2/19 112/10/19
f 8/9/20 7/1/20 85/2/20 86/10/20
f 60/9/21 61/1/21 139/2/21 138/10/21
f 35/9/22 34/1/22 112/2/22 113/10/22
f 9/9/23 8/1/23 86/2/23 87/10/23
f 61/9/24 62/1/24 140/2/24 139/10/24
f 36/9/25 35/1/25 113/2/25 114/10/25
f 10/9/26 9/1/26 87/2/26 88/10/26
f 62/9/27 63/1/27 141/2/27 140/10/27
f 37/9/28 36/1/28 114/2/28 115/10/28
f 11/9/29 10/1/29 88/2/29 89/10/29
f 63/9/30 64/1/30 142/2/30 141/10/30
f 38/9/31 37/1/31 115/2/31 116/10/31
f 12/9/32 11/1/32 89/2/32 90/10/32
f 64/9/33 65/1/33 143/2/33 142/10/33
f 39/9/34 38/1/34 116/2/34 117/10/34
f 13/9/35 12/1/35 90/2/35 91/10/35
f 65/9/36 66/1/36 144/2/36 143/10/36
f 1/9/37 39/1/37 117/2/37 79/10/37
f 14/9/38 13/1/38 91/2/38 92/10/38
f 66/9/39 67/1/39 145/2/39 144/10/39
f 40/9/40 41/1/40 119/2/40 118/10/40
f 15/9/41 14/1/41 92/2/41 93/10/41
f 67/9/42 68/1/42 146/2/42 145/10/42
f 41/9/43 42/1/43 120/2/43 119/10/43
f 16/9/44 15/1/44 93/2/44 94/10/44
f 68/9/45 69/1/45 147/2/45 146/10/45
f 42/9/46 43/1/46 121/2/46 120/10/46
f 17/9/47 16/1/47 94/2/47 95/10/47
f 69/9/48 70/1/48 148/2/48 147/10/48
f 43/9/49 44/1/49 122/2/49 121/10/49
f 18/9/50 17/1/50 95/2/50 96/10/50
f 70/9/51 71/1/51 149/2/51 148/10/51
f 44/9/52 45/1/52 123/2/52 122/10/52
f 19/9/53 18/1/53 96/2/53 97/10/53
f 71/9/54 72/1/54 150/2/54 149/10/54
f 45/9/55 46/1/55 124/2/55 123/10/55
f 20/9/56 19/1/56 97/2/56 98/10/56
f 72/9/57 73/1/57 151/2/57 150/10/57
f 46/9/58 47/1/58 125/2/58 124/10/58
f 21/9/59 20/1/59 98/2/59 99/10/59
f 73/9/60 74/1/60 152/2/60 151/10/60
f 47/9/61 48/1/61 126/2/61 125/10/61
f 22/9/62 21/1/62 99/2/62 100/10/62
f 74/9/63 75/1/63 153/2/63 152/10/63
f 48/9/64 49/1/64 127/2/64 126/10/64
f 23/9/65 22/1/65 100/2/65 101/10/65
f 75/9/66 76/1/66 154/2/66 153/10/66
f 49/9/67 50/1/67 128/2/67 127/10/67
f 24/9/68 23/1/68 101/2/68 102/10/68
f 76/9/69 77/1/69 155/2/69 154/10/69
f 50/9/70 51/1/70 129/2/70 128/10/70
f 25/9/71 24/1/71 102/2/71 103/10/71
f 77/9/72 78/1/72 156/2/72 155/10/72
f 51/9/73 52/1/73 130/2/73 129/10/73
f 26/9/74 25/1/74 103/2/74 104/10/74
f 78/9/75 40/1/75 118/2/75 156/10/75
f 52/9/76 53/1/76 131/2/76 130/10/76
f 27/9/77 26/1/77 104/2/77 105/10/77
f 53/9/78 54/1/78 132/2/78 131/10/78
f 28/9/79 27/1/79 105/2/79 106/10/79
f 2/9/80 1/1/80 79/2/80 80/10/80
